<?xml version="1.0" encoding="utf-8"?>
<!-- Generator: Adobe Illustrator 24.3.0, SVG Export Plug-In . SVG Version: 6.00 Build 0)  -->
<svg version="1.1" id="Layer_1" xmlns="http://www.w3.org/2000/svg" xmlns:xlink="http://www.w3.org/1999/xlink" x="0px" y="0px"
	 viewBox="0 0 919.2 800" style="enable-background:new 0 0 919.2 800;" xml:space="preserve">
<style type="text/css">
	.st0{fill-rule:evenodd;clip-rule:evenodd;fill:#F0B72C;}
	.st1{opacity:0.95;}
	.st2{fill:#F1B82B;}
	.st3{fill:#FCE888;}
	.st4{fill:#8A1C32;}
	.st5{fill:#E02D28;}
	.st6{fill:#D1942C;}
	.st7{fill:url(#SVGID_1_);}
	.st8{fill:url(#SVGID_3_);}
	.st9{fill:url(#SVGID_4_);}
	.st10{fill:url(#SVGID_5_);}
	.st11{fill:#FFFFFF;}
	.st12{fill:#322B18;}
	.st13{clip-path:url(#SVGID_6_);fill:url(#SVGID_7_);}
</style>
<path class="st0" d="M117,281.7c-4.1,10.5-4,26,6.7,32.4c1.1,0.8,5.5,6.1,12.5,7.1c8.9,1.2,19.6-0.6,26.2-5.8
	c7.9-6.2,4.4-16.1,5.2-24.2c6.9-9.6-11.7-27-26.1-26.8C125.8,264.5,117.5,279.5,117,281.7"/>
<path class="st0" d="M729.1,663.2c12.7-13.1,22.4-36.1,10.6-52.4c-1.2-1.9-4.3-12.6-14.2-18.5c-12.5-7.4-29.5-11.5-42.7-7.9
	c-15.7,4.2-16.7,21.1-23.1,32.7c-16.4,9.9,0.2,47.6,21.8,56.4C705,683.1,726.9,666,729.1,663.2"/>
<g>
	<g class="st1">
		<g>
			<path class="st2" d="M678.6,256.3c-0.4,5.6-3.3,10.8-8.4,13.5c-5,2.7-11.6,3-16.2-0.7c-0.2-0.2-0.5-0.4-0.7-0.6
				c-0.1-0.1-0.2-0.1-0.3-0.2c-4.4-2.9-6.9-7.7-7-12.9c0-2.8,0.9-5.8,2.3-8.1c2.7-4.3,7.1-6.8,12-7.4c3.8-0.4,7.8,0.2,11,2.4
				c3.3,2.2,5.3,5.1,6.5,8.9c0.1,0.3,0.2,0.6,0.2,0.9C678.5,253.3,678.7,254.9,678.6,256.3"/>
		</g>
	</g>
	<g>
		<path class="st3" d="M395.6,618.6c-4.5,0.5-9,0.8-13.9,1c-23.9,0.7-47.2-4.8-68.5-14.7c-10.9,2.3-43.2,1.7-63.7,25.3
			c30.7,20.1,65.7,34.3,103.3,40.8c2-2.8,4-5.7,6.4-9.3C370.3,645.1,385.1,632.1,395.6,618.6z"/>
		<path class="st3" d="M283.9,588c0.9,0.5,2,1.2,3.3,1.9c-20.2-13.8-37.7-31.6-51.2-51.4c-8.9-13-15.6-27.7-20.3-43.1
			c-0.1-1.2-0.3-2.4-0.4-3.5c-0.3-1.1-0.5-2.2-0.8-3.3c0.3,1.2,0.5,2.3,0.8,3.3c-10.2,6-46.1,24.5-53.6,28.1c-2,1-4.6,2.1-7.4,3.4
			c15.6,30.9,36.8,58.4,62.3,81.3c0.5-0.3,0.9-0.6,1.4-0.9C237.1,592,259.2,590.6,283.9,588z"/>
		<path class="st3" d="M409.1,663c-3.2,3.4-6.7,7.6-10.4,12c0.4,0,0.9,0,1.3,0c33,0,64.6-5.8,93.9-16.5
			c-18.3-5.6-36.8-13.9-54.3-24.4C428.8,643.9,417.7,653.6,409.1,663z"/>
		<path class="st3" d="M207.9,453.7c-0.1-0.9,1.1,6.3,2.7,15.3c-0.9-5.3-1.7-10.6-2.4-16c0,0-0.1,0-0.1,0c-3.6,1-3.7-10.7-4.4-19.5
			c-0.9-11.7,1.6-26,4-37.5c3.3-15.6,6.6-25.2,14.2-41c4.2-8.9,9.4-14.6,9.5-14.7c1.2-0.9,2.5-1.8,3.8-2.7
			c10.7-17.8,24.4-33.3,42-45.7c3.9-2.7,30.5-19.2,40.2-24.1c65-32.9,141.5-45.8,213.8-45.1c4.9,0.1,9.3,1.7,12.8,4.3
			c3.8,2.5,6.2,6.2,7.5,8.8c1.7,3.7,2.7,6.7,2.9,10.7c0.4,5-0.6,10.1-3.2,14.5c-0.2,0.5-0.5,0.9-0.8,1.4
			c-3.3,5.3-7.2,10.5-10.5,15.4c-3.1,5-5.9,9.9-8.3,14.9c-4.2,9.5-8.1,19.2-9.3,29.6c-0.2,1.6-0.1,3.1,0.1,4.7
			c2,1.4,3.8,3.7,5.1,7.3c3.4,9.3,4.7,12.9,7.7,21.5c4.5,12.9,6.5,20.4,9.3,32.5c2.2,9.5,6.2,27.8,6,34.6c-0.1,2.6-0.9,4.3-2.7,4.8
			c0,0.2,0,0.5,0.1,0.7c15.6,1.4,31.6,1.1,45.8-1.6c29.3-5.5,56.6-6.1,80.3-2.8c0.7-8,1.1-16,1.1-24.2c0-151.9-123.1-275-275-275
			S125,248.1,125,400c0,33.3,5.9,65.3,16.8,94.8c2.4-1.4,4.7-2.7,7-4C167.7,479.7,182.1,470.2,207.9,453.7z"/>
		<path class="st4" d="M562.8,619.3c-5.2-3.7-6.5-10.4-4-15.9c-4.2,0.3-8.4-0.6-11.6-3.1c-7.3-5.8-3.4-14.9,2.6-19.7
			c0.8-0.7,1.7-1.3,2.7-1.8c-2.2-1.8-4.1-3.7-5.3-5.5c-3.4-5.3-1.8-11.8,3.3-15.3c3.8-2.6,9-3,13.4-2.2c4.2,0.7,10.1,3.4,13.3,7.4
			c0.1-0.8,0.4-1.6,0.8-2.2c-0.1-1.7,0.2-3.3,1-4.9c0.5-1.5,1.6-2.8,3.2-3.7c3-1.6,6.5-1,9.9,0.4c3.9-7.2,6.9-12.4,7.9-25.6
			c1.3-18.3-11.2-32.8-23.3-42.2c-8.7-6.7-17.9-10.8-30.8-13.6c-2.3,13.8-6,27.3-11.5,39.9c-10.6,24.8-24.6,49.3-43.3,67.4
			c-8.5,11.1-18.1,21.4-27.2,31.8c-6.8,7.8-15.5,15.8-24.3,23.8c17.5,10.4,36,18.7,54.3,24.4c25.5-9.3,49.3-22.2,70.7-38.2
			C564,620,563.4,619.7,562.8,619.3z"/>
		<path class="st4" d="M633.2,458.9c-15.7-6.4-31.3-8.5-44.4-9.6c5.7,3.4,10.4,6.6,13.5,9.7c15.1,15,25.2,32.1,26.8,53.1
			c1.1,14.3-11.9,37.8-22.3,51.7c0,0,0,0,0,0c2.8,3.1,4.5,7,3.9,10.7c-0.7,4.1-4,6.9-8,7.6c0.6,0.6,1.2,1.1,1.8,1.7
			c26.4-29.4,46.6-64.5,58.5-103.3C653.4,470.5,643.2,462.9,633.2,458.9z"/>
		<path class="st5" d="M593.7,426.9c-14.2,2.6-30.2,3-45.8,1.6c0,0.2,0,0.3,0,0.5c6.4,2.9,13.2,6.1,19.9,9.3
			c7.6,0.3,15.8,0.4,24.9,0.6c29.5,0.6,54.1,8.5,76.8,15.8c2-10,3.5-20.2,4.4-30.5C650.2,420.8,623,421.4,593.7,426.9z"/>
		<path class="st5" d="M567.8,438.2c7.5,3.6,14.8,7.4,21,11c13.1,1.1,28.7,3.2,44.4,9.6c10,4.1,20.1,11.6,29.8,21.6
			c2.6-8.5,4.8-17.1,6.6-25.9c-22.7-7.3-47.4-15.2-76.8-15.8C583.6,438.6,575.4,438.5,567.8,438.2z"/>
		<path class="st6" d="M215.3,492c-0.3-1-0.5-2.1-0.8-3.3c-1.5-6.4-2.8-13-3.9-19.6c-1.6-9-2.8-16.2-2.7-15.3
			c-25.7,16.5-40.2,26-59.1,37.1c-2.3,1.3-4.6,2.7-7,4c3.6,9.8,7.8,19.4,12.5,28.7c2.9-1.2,5.4-2.4,7.4-3.4
			C169.2,516.5,205.2,498,215.3,492z"/>
		<path class="st2" d="M531.5,292.9c2.4-4.9,5.2-9.9,8.3-14.9c-2.8,4.1-5.3,7.9-6.8,11.4C532.6,290.5,532.1,291.7,531.5,292.9z"/>
		<path class="st2" d="M369.4,399.2c17.4,7.2,34.8-17,36.7-36.9c0.9-10.2,0.3-22.4-3.8-32.2c-6.9-16.8-20.2-17.8-29.8-14.7
			c-8.3,3.2-14,10.8-16.6,19.9C350.7,354.3,352,391.9,369.4,399.2z M368,359.2c0.8-9.6,1.8-17.3,7.3-25.2c5.4-7.8,17.3-7.4,20.7-0.5
			c5.3,10.5,4.9,18.5,3.7,33.9c-1.1,14.4-13.7,32-25.8,18.9C368,379.9,367.3,367.5,368,359.2z"/>
		<path class="st2" d="M291.7,369.6c0.1-8,0.5-17.7-3.9-24.7c-4.9-7.7-8.4-8.8-11.6-8.5c-17,0.4-27.8,22.3-30.2,33.4
			c-1.7,8.2-0.4,19.4,2.4,27.4c3.5,9.9,10.3,18.8,19.9,17.4C287.3,411.8,291.4,386.6,291.7,369.6z M265,402.8
			c-4.9-2.5-6.3-11.1-7.1-16.5c0,0,0,0,0,0c-1.9-9.1,0.3-20.2,4.9-28.2c5.3-9.3,16.8-8.6,20.2-0.1c1.6,3.9,2,10.4,2,18.1
			c0,5-2.7,17-5.3,21.4C276.7,402.5,271.2,406,265,402.8z"/>
		<path class="st2" d="M439.6,634.2c-5.2-3.1-10.4-6.4-15.4-9.9c-32.9-22.8-68.5-55.5-89.8-85.5c-3.3-4.6-6.6-9.4-10-14.3
			c-15.8-8.4-30.3-19.5-39.6-31.6c2.9-0.5,9.6-1.7,17.9-3.2c-9-16.2-16.9-33.5-22.1-51.6c-36.8,6.1-59.8,11.5-72.4,14.9
			c0.7,5.4,1.5,10.7,2.4,16c1.2,6.4,2.6,13.7,3.9,19.6c0.3,1.1,0.5,2.2,0.8,3.3c0.1,1.2,0.2,2.4,0.4,3.5c4.7,15.4,11.5,30,20.3,43.1
			c13.5,19.8,31,37.5,51.2,51.4c5.9,3.5,15.4,9.4,27.2,14.4c0.1,0,0.1,0.2,0,0.2c-0.4,0.1-0.8,0.2-1.3,0.3
			c21.4,10,44.7,15.5,68.5,14.7c4.9-0.1,9.4-0.5,13.9-1c-10.5,13.4-25.3,26.4-36.5,43.1c-2.4,3.5-4.4,6.4-6.4,9.3
			c14.9,2.6,30.3,4,46,4c3.7-4.4,7.2-8.6,10.4-12C417.7,653.6,428.8,643.9,439.6,634.2z"/>
		<path class="st2" d="M506.5,320.8c-6.1-9.4-10.1-19.4-7.5-29.1c3.4-12.7,13.4-24.1,23.4-32c11.7-9.3,23.1-19.5,20-33.4
			c0.6,0.3,1.1,0.6,1.6,1c-3.6-2.6-7.9-4.3-12.8-4.3c-72.3-0.8-148.8,12.2-213.8,45.1c-9.7,4.9-36.3,21.4-40.2,24.1
			c-17.6,12.4-31.3,28-42,45.7c30.1-20.5,80.1-33.4,127.6-35.8C413.3,299.4,466.1,306.8,506.5,320.8z"/>
		<path class="st2" d="M542.7,427.4c-0.4,0.1-2.9,0-6.4-0.3c3.8,0.6,7.8,1,11.7,1.4c0-0.2,0-0.5-0.1-0.7
			C546.6,428.1,544.9,428,542.7,427.4z"/>
		<path class="st2" d="M554.4,250.7c-0.3,4.5-1.4,7.1-3.2,10.5c2.7-4.4,3.7-9.5,3.2-14.5C554.5,247.9,554.5,249.2,554.4,250.7z"/>
		<path class="st2" d="M606.8,563.7c10.4-13.9,23.4-37.4,22.3-51.7c-1.6-21-11.7-38.1-26.8-53.1c-3.1-3.1-7.8-6.4-13.5-9.7
			c-10-0.8-18.6-1-24.6-2.1c-27.5-4.6-44.2-13.3-54-21.8c-31.8-1.9-58.6-2.5-90.4-1.6c-21.3,0.3-85.2,6.3-99,8.3
			c-14.9,2.1-28.3,4.2-40.2,6.2c5.2,18,13.1,35.4,22.1,51.6c10-1.8,22.2-4.1,32.7-6.4c22.8-5,57.4-12.2,71.7-16.9
			c15.2-5,63.3-21.5,73.1-25.6c-1.2,12.7-5.9,28.3-11.6,40.8c-4.6,10.1-11.7,21.9-21.2,31c-13.4,12.8-24.7,16.4-43,21
			c-18.6,4.7-46,5.3-63.8-1.7c-5.5-2.1-11-4.7-16.4-7.5c3.4,4.9,6.7,9.7,10,14.3c21.3,29.9,56.9,62.7,89.8,85.5
			c5,3.5,10.2,6.8,15.4,9.9c8.8-8,17.5-16,24.3-23.8c9.1-10.4,18.7-20.8,27.2-31.8c18.7-18.1,32.7-42.7,43.3-67.4
			c5.4-12.6,9.2-26.1,11.5-39.9c13,2.9,22.1,6.9,30.8,13.6c12.1,9.4,24.6,23.9,23.3,42.2c-0.9,13.2-4,18.4-7.9,25.6
			c2.6,1,5,2.5,6.9,3.7C602.2,558.3,605.1,560.7,606.8,563.7z"/>
		<path class="st2" d="M517.1,425.8c-2-0.1-4-0.3-5.9-0.4c20.4,9.6,36.6,11.9,56.6,12.8c-6.6-3.2-13.5-6.3-19.9-9.3
			c0-0.2,0-0.3,0-0.5c-3.9-0.4-7.8-0.8-11.7-1.4C530.9,426.8,523.3,426.2,517.1,425.8z"/>
		<path class="st2" d="M510.2,425.4c9.9,8.5,26.5,17.2,54,21.8c6,1,14.5,1.2,24.6,2.1c-6.2-3.7-13.5-7.4-21-11
			c-20-0.8-36.2-3.2-56.6-12.8C510.9,425.4,510.6,425.4,510.2,425.4z"/>
		<path class="st2" d="M210.6,469.1c1.1,6.6,2.4,13.2,3.9,19.6C213.2,482.7,211.8,475.5,210.6,469.1z"/>
		<path class="st6" d="M313.2,604.8c-9-4.2-17.7-9.2-26-14.9c-1.3-0.8-2.4-1.4-3.3-1.9c-24.7,2.6-46.8,4-66,15.9
			c-0.5,0.3-0.9,0.6-1.4,0.9c10.3,9.2,21.3,17.7,32.9,25.3C270,606.5,302.3,607.2,313.2,604.8z"/>
		<path class="st6" d="M314.5,604.5c0.1,0,0-0.1,0-0.2c-11.8-4.9-21.4-10.8-27.2-14.4c8.3,5.7,16.9,10.7,26,14.9
			C313.6,604.7,314.1,604.6,314.5,604.5z"/>
		<path class="st3" d="M554.4,246.6c-0.2-3.9-1.2-7-2.9-10.7c-1.4-2.6-3.7-6.3-7.5-8.8C550,231.7,553.8,239.1,554.4,246.6z"/>
		
			<linearGradient id="SVGID_1_" gradientUnits="userSpaceOnUse" x1="-74.2281" y1="4295.5166" x2="-71.8736" y2="4295.5166" gradientTransform="matrix(-1.7802 39.1453 39.1453 1.7802 -167731.8906 -4507.2852)">
			<stop  offset="0" style="stop-color:#D3802F"/>
			<stop  offset="1" style="stop-color:#F1B82C"/>
		</linearGradient>
		<path class="st7" d="M554.4,246.6c-0.2-3.9-1.2-7-2.9-10.7c-1.4-2.6-3.7-6.3-7.5-8.8C550,231.7,553.8,239.1,554.4,246.6z"/>
		<path class="st3" d="M521.4,326.5c0.3,0.2,0.7,0.4,1,0.6c-0.2-1.6-0.3-3.1-0.1-4.7c1.1-10.3,5.1-20,9.3-29.6
			c-4.7,9.7-8,19.5-9.8,30.6C521.5,324.5,521.4,325.5,521.4,326.5z"/>
		
			<linearGradient id="SVGID_3_" gradientUnits="userSpaceOnUse" x1="-74.2281" y1="4295.0215" x2="-71.8736" y2="4295.0215" gradientTransform="matrix(-1.7802 39.1453 39.1453 1.7802 -167731.8906 -4507.2852)">
			<stop  offset="0" style="stop-color:#D3802F"/>
			<stop  offset="1" style="stop-color:#F1B82C"/>
		</linearGradient>
		<path class="st8" d="M521.4,326.5c0.3,0.2,0.7,0.4,1,0.6c-0.2-1.6-0.3-3.1-0.1-4.7c1.1-10.3,5.1-20,9.3-29.6
			c-4.7,9.7-8,19.5-9.8,30.6C521.5,324.5,521.4,325.5,521.4,326.5z"/>
		<path class="st3" d="M539.9,278c3.4-4.9,7.2-10.1,10.5-15.4c0.3-0.5,0.5-1,0.8-1.4c-0.3,0.5-0.6,0.9-0.9,1.3
			C546.5,267.9,543,273,539.9,278z"/>
		
			<linearGradient id="SVGID_4_" gradientUnits="userSpaceOnUse" x1="-74.2281" y1="4295.4609" x2="-71.8736" y2="4295.4609" gradientTransform="matrix(-1.7802 39.1453 39.1453 1.7802 -167731.8906 -4507.2852)">
			<stop  offset="0" style="stop-color:#D3802F"/>
			<stop  offset="1" style="stop-color:#F1B82C"/>
		</linearGradient>
		<path class="st9" d="M539.9,278c3.4-4.9,7.2-10.1,10.5-15.4c0.3-0.5,0.5-1,0.8-1.4c-0.3,0.5-0.6,0.9-0.9,1.3
			C546.5,267.9,543,273,539.9,278z"/>
		<path class="st2" d="M522.4,259.6c-10.1,8-20.1,19.4-23.4,32c-2.6,9.7,1.4,19.7,7.5,29.1c4.9,1.7,9.6,3.5,14.1,5.4
			c0.3,0.1,0.5,0.2,0.8,0.4c0.1-1,0.1-2.1,0.3-3.1c1.8-11.1,5.1-20.9,9.8-30.6c0.5-1.2,1-2.3,1.5-3.5c1.5-3.5,4-7.3,6.8-11.4
			c3.1-5,6.6-10.1,10.5-15.5c0.3-0.4,0.6-0.9,0.9-1.3c1.8-3.4,2.9-6,3.2-10.5c0.1-1.5,0.1-2.8,0.1-4c-0.6-7.6-4.4-15-10.5-19.5
			c-0.5-0.3-1-0.7-1.6-1C545.5,240.1,534.1,250.3,522.4,259.6z"/>
		
			<linearGradient id="SVGID_5_" gradientUnits="userSpaceOnUse" x1="-74.2281" y1="4294.9751" x2="-71.8736" y2="4294.9751" gradientTransform="matrix(-1.7802 39.1453 39.1453 1.7802 -167731.8906 -4507.2852)">
			<stop  offset="0" style="stop-color:#D3802F"/>
			<stop  offset="1" style="stop-color:#F1B82C"/>
		</linearGradient>
		<path class="st10" d="M522.4,259.6c-10.1,8-20.1,19.4-23.4,32c-2.6,9.7,1.4,19.7,7.5,29.1c4.9,1.7,9.6,3.5,14.1,5.4
			c0.3,0.1,0.5,0.2,0.8,0.4c0.1-1,0.1-2.1,0.3-3.1c1.8-11.1,5.1-20.9,9.8-30.6c0.5-1.2,1-2.3,1.5-3.5c1.5-3.5,4-7.3,6.8-11.4
			c3.1-5,6.6-10.1,10.5-15.5c0.3-0.4,0.6-0.9,0.9-1.3c1.8-3.4,2.9-6,3.2-10.5c0.1-1.5,0.1-2.8,0.1-4c-0.6-7.6-4.4-15-10.5-19.5
			c-0.5-0.3-1-0.7-1.6-1C545.5,240.1,534.1,250.3,522.4,259.6z"/>
		<path class="st5" d="M602.7,582.1c4-0.7,7.3-3.5,8-7.6c0.6-3.7-1.1-7.7-3.9-10.7c0,0,0,0,0,0c-2.5,3.3-4.8,6.1-6.8,8.1
			c-1.4,1.4-13.5-8-12.6-9.9c1.6-3.7,3.2-6.7,4.6-9.3c-3.3-1.4-6.9-2-9.9-0.4c-1.6,0.9-2.7,2.2-3.2,3.7c-0.8,1.5-1.1,3.2-1,4.9
			c-0.4,0.7-0.7,1.4-0.8,2.2c-3.2-4-9.1-6.7-13.3-7.4c-4.4-0.7-9.6-0.3-13.4,2.2c-5.1,3.5-6.7,10-3.3,15.3c1.2,1.8,3,3.8,5.3,5.5
			c-0.9,0.6-1.8,1.2-2.7,1.8c-6,4.8-9.9,13.9-2.6,19.7c3.2,2.6,7.4,3.5,11.6,3.1c-2.4,5.5-1.2,12.2,4,15.9c0.6,0.4,1.2,0.8,1.8,1.1
			c14.5-10.8,27.9-23.1,39.9-36.5C603.9,583.2,603.3,582.6,602.7,582.1z"/>
		<path class="st5" d="M600.1,571.8c1.9-2,4.3-4.8,6.8-8.1c-1.7-3-4.6-5.4-7.9-7.5c-1.9-1.2-4.3-2.7-6.9-3.7c-1.4,2.7-3,5.6-4.6,9.3
			C586.6,563.8,598.7,573.2,600.1,571.8z"/>
		<path class="st11" d="M284.8,492.9c9.3,12.1,23.8,23.2,39.6,31.6c-7.4-10.9-14.9-22.5-21.7-34.7
			C294.4,491.2,287.7,492.4,284.8,492.9z"/>
		<path class="st11" d="M404.6,533.7c18.2-4.6,29.6-8.1,43-21c9.5-9.1,16.6-21,21.2-31c5.7-12.6,10.3-28.1,11.6-40.8
			c-9.7,4.1-57.9,20.6-73.1,25.6c-14.3,4.7-48.9,11.9-71.7,16.9c-10.6,2.3-22.8,4.6-32.7,6.4c6.8,12.2,14.3,23.9,21.7,34.7
			c5.4,2.8,10.9,5.4,16.4,7.5C358.6,539,386,538.3,404.6,533.7z"/>
		<path class="st12" d="M283,358c-3.5-8.5-14.9-9.2-20.2,0.1c-4.6,8-6.8,19.1-4.9,28.2c0,0,0,0,0,0c0.8,5.4,2.2,14,7.1,16.5
			c6.2,3.2,11.7-0.3,14.7-5.3c2.7-4.4,5.3-16.4,5.3-21.4C285.1,368.4,284.6,361.8,283,358z M279.5,365.6
			C279.5,365.7,279.5,365.7,279.5,365.6c-0.2,0.4-0.4,0.6-0.7,0.9c-0.2,0.2-0.3,0.4-0.5,0.6c-0.4,0.4-0.8,0.7-1.3,1
			c-0.7,0.5-1.5,0.8-2.3,0.9c-2,0.2-4.3-0.9-5.1-2.8c-1.6-2.6-1.3-6.5,1-8.6c1.7-1.6,4-2.1,6.2-1.2c1.7,0.8,2.9,2.3,3.4,4.1
			C280.8,362.2,280.4,364.1,279.5,365.6z"/>
		<path class="st12" d="M399.7,367.5c1.2-15.4,1.6-23.4-3.7-33.9c-3.5-6.9-15.3-7.3-20.7,0.5c-5.5,7.9-6.5,15.6-7.3,25.2
			c-0.7,8.3,0,20.7,5.9,27.1C386,399.5,398.6,382,399.7,367.5z M381.6,343.4c0.2-2.8,1.5-6,4.1-6.9c2.4-1.4,5.1-1,7,1.2
			c1.5,1.7,1.3,5.9,0.5,8c-0.8,2.2-2.1,3.5-4.2,4c-1.4,0.5-3.6,0.2-5-0.7C382.3,347.8,381.5,345.6,381.6,343.4z"/>
		<path class="st11" d="M277,356.4c-2.2-1-4.5-0.4-6.2,1.2c-2.3,2.1-2.7,6-1,8.6c0.8,1.9,3.1,3,5.1,2.8c0.8-0.1,1.6-0.4,2.3-0.9
			c0.4-0.3,0.9-0.6,1.3-1c0.2-0.2,0.3-0.4,0.5-0.6c0.2-0.3,0.4-0.5,0.6-0.8c0,0,0,0,0.1-0.1c0.9-1.5,1.3-3.5,0.8-5.2
			C279.9,358.6,278.7,357.1,277,356.4z"/>
		<path class="st11" d="M384.2,349c1.3,0.9,3.6,1.2,5,0.7c2-0.5,3.3-1.8,4.2-4c0.8-2.1,0.9-6.3-0.5-8c-1.9-2.2-4.6-2.6-7-1.2
			c-2.6,1-3.9,4.1-4.1,6.9C381.5,345.6,382.3,347.8,384.2,349z"/>
		<path class="st5" d="M218.9,372c4.5-12,9.8-23.5,16.3-34.2c-1.3,0.9-2.6,1.8-3.8,2.7c-0.1,0.1-5.3,5.8-9.5,14.7
			c-7.5,15.8-10.9,25.3-14.2,41c-2.4,11.5-4.8,25.7-4,37.5c0.6,8.9,0.8,20.5,4.4,19.5c0,0,0,0,0.1,0c-0.2-1.4-0.4-2.8-0.6-4.2
			C206.3,422.4,210,395.7,218.9,372z"/>
		<path class="st5" d="M526.5,345.8c-0.7-0.8-1.4-1.7-2.2-2.6c1.6,4.5,3.6,9,5.6,13.5c1.1,2.4,2.2,4.9,3.3,7.4
			c2.8,6.4,5.5,12.8,6.9,19.3c0,0,0,0,0,0c4.3,14.4,6.9,29.3,7.8,44.4c1.9-0.5,2.7-2.2,2.7-4.8c0.1-6.7-3.8-25-6-34.6
			c-2.8-12.1-4.7-19.6-9.3-32.5c-3-8.6-4.4-12.2-7.7-21.5c-1.3-3.6-3.1-5.9-5.1-7.3c0.8,5.9,4,11.7,6.3,17.4
			C529.2,345.9,527.4,347,526.5,345.8z"/>
		<path class="st5" d="M347.3,411.3c38.8-5.2,110.7-15,153.2,8.6c3,1.7,5.9,3.2,8.7,4.5c-1.7-1.5-3.2-3-4.4-4.5
			c9.3,3.1,20.1,5.6,31.5,7.2c3.6,0.2,6.1,0.4,6.4,0.3c2.3,0.6,4,0.7,5.2,0.3c-0.9-15.1-3.5-30-7.8-44.4c0,0,0,0,0,0
			c-1.4-6.4-4.1-12.8-6.9-19.3c-1-2.5-2.1-4.9-3.3-7.4c-2-4.5-4-8.9-5.6-13.5c-5.7-6.7-12.6-14.4-17.8-22.5
			c-40.4-14-93.2-21.4-143.7-18.8c-47.5,2.4-97.5,15.2-127.6,35.8c-6.5,10.7-11.8,22.2-16.3,34.2c-8.8,23.8-12.6,50.5-11.2,77
			c0.2,1.4,0.4,2.8,0.6,4.2c12.6-3.5,35.7-8.8,72.4-14.9c-0.5-1.6-0.9-3.2-1.3-4.7C276.9,424.2,334.5,413,347.3,411.3z M356,335.3
			c2.5-9.1,8.2-16.7,16.6-19.9c9.6-3.1,22.8-2.1,29.8,14.7c4.1,9.8,4.7,22,3.8,32.2c-1.9,19.9-19.2,44.2-36.7,36.9
			C352,391.9,350.7,354.3,356,335.3z M248.5,397.1c-2.8-8-4.2-19.2-2.4-27.4c2.3-11,13.1-33,30.2-33.4c3.2-0.3,6.7,0.9,11.6,8.5
			c4.5,7,4.1,16.7,3.9,24.7c-0.3,17-4.4,42.2-23.3,44.9C258.8,415.9,252,407,248.5,397.1z"/>
		<path class="st5" d="M419.8,423.7c31.8-0.8,58.5-0.3,90.4,1.6c-0.4-0.3-0.7-0.6-1.1-0.9c-2.8-1.4-5.7-2.9-8.7-4.5
			c-42.4-23.6-114.3-13.8-153.2-8.6c-12.8,1.7-70.4,12.9-68,22.1c0.4,1.6,0.8,3.2,1.3,4.7c11.9-2,25.3-4.1,40.2-6.2
			C334.6,430,398.5,424,419.8,423.7z"/>
		<path class="st5" d="M517.1,425.8c6.1,0.4,13.8,1,19.1,1.3c-11.3-1.6-22.1-4.1-31.5-7.2c1.3,1.5,2.8,3,4.4,4.5
			c0.7,0.3,1.4,0.7,2.1,1C513.2,425.6,515.1,425.7,517.1,425.8z"/>
		<path class="st5" d="M509.2,424.4c0.3,0.3,0.7,0.6,1.1,0.9c0.3,0,0.7,0,1,0.1C510.5,425.1,509.9,424.8,509.2,424.4z"/>
		<path class="st5" d="M524.3,343.2c0.7,0.9,1.5,1.7,2.2,2.6c1,1.1,2.8,0,2.2-1.3c-2.3-5.7-5.5-11.5-6.3-17.4
			c-0.3-0.2-0.7-0.4-1-0.6C521.1,332.1,522.3,337.7,524.3,343.2z"/>
		<path class="st5" d="M521.4,326.5c-0.3-0.1-0.5-0.3-0.8-0.4c-4.5-1.9-9.2-3.7-14.1-5.4c5.2,8.1,12.1,15.7,17.8,22.5
			C522.3,337.7,521.1,332.1,521.4,326.5z"/>
	</g>
</g>
<path class="st4" d="M773.6,562.8c-11.1-38.1-15.1-53-23.5-68.7c-4-7.6-54.3-31.4-61.3-33.4c-28.3-8.1-58.2-21-96.2-21.8
	c-37.2-0.8-58.2,0-92.3-18.9c-42.4-23.6-114.3-13.8-153.2-8.6c-12.8,1.7-70.4,12.9-68,22.1c10.2,39.6,34.1,75.9,55.1,105.4
	c21.3,29.9,56.9,62.7,89.8,85.5c31.4,21.8,67.3,36.7,100.6,41.2c34.3,4.7,75,3.9,113.7-16.9c21.5-11.6,73.6-33.6,97-28.5
	c24.4,5.2,30,19.8,53.3,28.8C792.2,650.1,781.9,591.1,773.6,562.8"/>
<path class="st5" d="M792.9,604.5c-3.1-74.3-2.1-143-88.1-173c-29.6-10.3-68.1-12.6-111.2-4.6c-28.3,5.3-63.9,1.2-88.9-7
	c8.6,10,26.1,21.6,59.5,27.3c13.9,2.3,41.3,0.4,69,11.7c28.8,11.7,59.1,52.8,74.6,97.2c24.4,69.6,72.3,104.1,124.2,122
	C811.5,656.6,794.4,640.9,792.9,604.5"/>
<g class="st1">
	<g>
		<path class="st2" d="M629.1,512.1c-1.6-21-11.7-38.1-26.8-53.1c-9.4-9.4-34-20.7-54.3-30c-0.9-15.5-3.5-30.8-7.9-45.6c0,0,0,0,0,0
			c-1.4-6.4-4.1-12.8-6.9-19.3c-1-2.5-2.1-4.9-3.3-7.4c-4.8-10.9-10-22-8.2-33.3c3.7-22.4,13.5-39.7,28.6-60.9
			c10.5-14.8,0.2-39.4-19.2-39.6c-72.3-0.8-148.8,12.2-213.8,45.1c-9.7,4.9-36.3,21.4-40.2,24.1c-28.2,19.8-46.4,47.9-58.3,79.9
			c-8.8,23.8-12.6,50.5-11.2,77c1.9,14.6,4.2,29.2,7.7,43.1c0.1,1.2,0.2,2.4,0.4,3.5c4.7,15.4,11.5,30,20.3,43.1
			c32,47.1,87.1,82.7,145.7,81c4.9-0.1,9.4-0.5,13.9-1c-10.5,13.4-25.3,26.4-36.5,43.1c-6.1,9.1,37.3,15.1,49.9,1.3
			c15.6-17,39.6-35.2,54.8-52.6c9.1-10.4,18.7-20.8,27.2-31.8c18.7-18.1,32.7-42.7,43.3-67.4c5.4-12.6,9.2-26.1,11.5-39.9
			c13,2.9,22.1,6.9,30.8,13.6c12.1,9.4,24.6,23.9,23.3,42.2c-1.3,18.1-6.6,21.2-12.5,34.9c-0.8,1.9,11.3,11.3,12.6,9.9
			C610.2,561.6,630.5,529.8,629.1,512.1"/>
	</g>
</g>
<g>
	<defs>
		<path id="SVGID_2_" d="M551.5,236c2.3,4.8,3.3,8.6,2.9,14.7c-0.4,5.1-1.6,7.8-4,11.9c-6.1,9.7-14,19.1-17.3,26.8
			c-4.7,10.6-9.5,21.4-10.8,33.1c-0.8,7.5,3.5,14.9,6.4,22c0.6,1.4-1.3,2.5-2.2,1.3c-12.4-15-32.6-35.1-27.5-54.2
			c3.4-12.7,13.4-24.1,23.4-32c11.7-9.3,23.1-19.5,20-33.4C547.1,228.7,549.9,233,551.5,236"/>
	</defs>
	<clipPath id="SVGID_6_">
		<use xlink:href="#SVGID_2_"  style="overflow:visible;"/>
	</clipPath>
	
		<linearGradient id="SVGID_7_" gradientUnits="userSpaceOnUse" x1="-74.2281" y1="4295.0068" x2="-71.8736" y2="4295.0068" gradientTransform="matrix(-1.7802 39.1453 39.1453 1.7802 -167731.8906 -4507.2852)">
		<stop  offset="0" style="stop-color:#D3802F"/>
		<stop  offset="1" style="stop-color:#F1B82C"/>
	</linearGradient>
	<polygon class="st13" points="572.3,221.8 566.5,349.2 481.8,345.3 487.6,217.9 	"/>
</g>
<path class="st5" d="M610.6,592.7c-1.5-4-4.4-7.5-7.9-10.6c4-0.7,7.3-3.5,8-7.6c0.6-3.7-1.1-7.7-3.9-10.7c-1.7-3-4.6-5.4-7.9-7.5
	c-4.4-2.8-11.5-6.9-16.7-4.1c-1.6,0.9-2.7,2.2-3.2,3.7c-0.8,1.5-1.1,3.2-1,4.9c-0.4,0.7-0.7,1.4-0.8,2.2c-3.2-4-9.1-6.7-13.3-7.4
	c-4.4-0.7-9.6-0.3-13.4,2.2c-5.1,3.5-6.7,10-3.3,15.3c1.2,1.8,3,3.8,5.3,5.5c-0.9,0.6-1.8,1.2-2.7,1.8c-6,4.8-9.9,13.9-2.6,19.7
	c3.2,2.6,7.4,3.5,11.6,3.1c-2.4,5.5-1.2,12.2,4,15.9c5.1,3.7,11.2,2.9,16.4,0.1c0.6,6.5,9.1,11.8,14.8,6.9
	C602.7,618.7,615.2,605.2,610.6,592.7"/>
<path class="st11" d="M480.3,440.8c-9.7,4.1-57.9,20.6-73.1,25.6c-14.3,4.7-48.9,11.9-71.7,16.9c-19.4,4.3-44.4,8.4-50.7,9.5
	c12.5,16.2,34.3,30.7,56,39.1c17.8,6.9,45.2,6.3,63.8,1.7c18.2-4.6,29.6-8.1,43-21c9.5-9.1,16.6-21,21.2-31
	C474.4,469.1,479,453.6,480.3,440.8"/>
<path class="st12" d="M285,376.1c0-7.7-0.4-14.3-2-18.1c-3.5-8.5-14.9-9.2-20.2,0.1c-4.6,8-6.8,19.1-4.9,28.2c0,0,0,0,0,0
	c0.8,5.4,2.2,14,7.1,16.5c6.2,3.2,11.7-0.3,14.7-5.3C282.4,393.1,285,381.1,285,376.1"/>
<path class="st12" d="M396.1,333.6c-3.5-6.9-15.3-7.3-20.7,0.5c-5.5,7.9-6.5,15.6-7.3,25.2c-0.7,8.3,0,20.7,5.9,27.1
	c12.1,13.1,24.7-4.4,25.8-18.9C400.9,352.1,401.3,344.1,396.1,333.6"/>
<path class="st11" d="M278.8,366.5c0.2-0.3,0.4-0.5,0.6-0.8c0,0,0,0,0.1-0.1c0.9-1.5,1.3-3.5,0.8-5.2c-0.5-1.8-1.7-3.3-3.4-4.1
	c-2.2-1-4.5-0.4-6.2,1.2c-2.3,2.1-2.7,6-1,8.6c0.8,1.9,3.1,3,5.1,2.8c0.8-0.1,1.6-0.4,2.3-0.9c0.4-0.3,0.9-0.6,1.3-1
	C278.6,366.9,278.7,366.7,278.8,366.5"/>
<path class="st11" d="M393.3,345.7c-0.8,2.2-2.1,3.5-4.2,4c-1.4,0.5-3.6,0.2-5-0.7c-1.9-1.2-2.7-3.4-2.5-5.6c0.2-2.8,1.5-6,4.1-6.9
	c2.4-1.4,5.1-1,7,1.2C394.2,339.4,394.1,343.6,393.3,345.7"/>
<path class="st5" d="M550.6,422.9c0.1-6.7-3.8-25-6-34.6c-2.8-12.1-4.7-19.6-9.3-32.5c-3-8.6-4.4-12.2-7.7-21.5
	c-1.7-4.7-4.2-7.2-6.9-8.3c-41.7-17.5-101.2-27.1-157.8-24.2c-49.6,2.5-101.9,16.4-131.4,38.5c-0.1,0.1-5.3,5.8-9.5,14.7
	c-7.5,15.8-10.9,25.3-14.2,41c-2.4,11.5-4.8,25.7-4,37.5c0.6,8.9,0.8,20.5,4.4,19.5c16.7-4.6,51.7-12.5,112.8-21.1
	c13.7-1.9,77.7-8,99-8.3c34-0.9,62.4-0.2,97.3,2.1c10.3,0.7,24.7,1.8,25.5,1.6C548.3,428.9,550.5,427.3,550.6,422.9 M291.7,369.6
	c-0.3,17-4.4,42.2-23.3,44.9c-9.6,1.4-16.4-7.5-19.9-17.4c-2.8-8-4.2-19.2-2.4-27.4c2.3-11,13.1-33,30.2-33.4
	c3.2-0.3,6.7,0.9,11.6,8.5C292.3,351.9,291.9,361.6,291.7,369.6 M402.3,330.1c4.1,9.8,4.7,22,3.8,32.2
	c-1.9,19.9-19.2,44.2-36.7,36.9c-17.4-7.2-18.7-44.8-13.4-63.9c2.5-9.1,8.2-16.7,16.6-19.9C382.1,312.3,395.4,313.3,402.3,330.1"/>
<g class="st1">
	<g>
		<path class="st2" d="M620.7,224.2c-5.9-6.4-15.2-9.4-23.7-7.3c-3.4,0.8-6.5,2.3-9.2,4.2c-6.1,2-10.9,6.7-13.4,13.2
			c-2.8,6.9-1.7,15,1.9,21.4c7.8,14,27.7,17.6,40.3,8.2C629,254.6,631.5,235.9,620.7,224.2"/>
	</g>
</g>
</svg>
